<svg
    width="29"
    height="24"
    viewBox="0 0 29 24"
    fill="#fff"
    xmlns="http://www.w3.org/2000/svg"
>
    <path
        d="M1.00191 24C0.59453 24 0.383573 23.4555 0.667283 23.1318L5.14844 18.2833C5.33031 18.092 5.56309 17.9963 5.81043 17.9963H28.5363C28.9437 17.9963 29.1547 18.5408 28.8709 18.8645L24.3898 23.7131C24.2079 23.9044 23.9751 24 23.7278 24H1.00191Z"></path>
    <path
        d="M1.00191 6.00368C0.59453 6.00368 0.383573 5.45923 0.667283 5.1355L5.14844 0.286941C5.33031 0.0956468 5.56309 0 5.81043 0H28.5363C28.9437 0 29.1547 0.544451 28.8709 0.868179L24.3898 5.71674C24.2079 5.90803 23.9751 6.00368 23.7278 6.00368H1.00191Z"></path>
    <path
        d="M23.706 8.94666C23.9606 8.94666 24.1861 9.04231 24.368 9.2336L28.8709 14.0822C29.1547 14.4132 28.9364 14.9503 28.529 14.9503H5.72313C5.46852 14.9503 5.24301 14.8547 5.06114 14.6634L0.558157 9.81484C0.274447 9.48375 0.492686 8.94666 0.900064 8.94666H23.706Z"></path>
</svg>