<svg
    width="101"
    height="18"
    viewBox="0 0 101 18"
    fill="#fff"
    xmlns="http://www.w3.org/2000/svg"
>
    <path
        d="M59.2852 14.3348H62.4792V3.79028H59.2852V0.951904H68.8924V3.79028H65.6733V14.3348H68.8924V17.1732H59.2852V14.3348Z"></path>
    <path d="M73.5117 0.951172H76.7309V14.2839H84.8931V17.1739H73.5117V0.951172Z"></path>
    <path
        d="M88.9922 0.951172H100.88V3.68913H92.1862V7.51641H100.247V10.2028H92.1862V14.4359H101.007V17.1739H88.9922V0.951172Z"></path>
    <path
        d="M12.2484 0.951172L9.38356 13.3968H9.17434H8.96652L6.10164 0.951172H0.144531V17.1739H3.31207L3.15865 4.50089H3.89788L6.81298 17.1739H9.17434H11.5371L14.4522 4.50089H15.1914L15.038 17.1739H18.2056V0.951172H12.2484Z"></path>
    <path
        d="M52.6604 8.4537V8.35328C54.1807 7.69355 54.9409 6.42569 54.9409 4.93048C54.9409 2.59841 53.2183 0.951172 50.0243 0.951172H42.5469V17.1739H50.4037C53.8767 17.1739 55.6508 15.0692 55.6508 12.5097C55.6508 10.5584 54.5615 9.13854 52.6604 8.4537ZM45.7409 3.48549H50.1596C51.0509 3.48549 51.7733 4.20799 51.7733 5.09925V5.85243C51.7733 6.7437 51.0509 7.4648 50.1596 7.4648H45.7409V3.48549ZM52.4568 12.8724C52.4568 13.8641 51.6534 14.6688 50.6617 14.6688H45.7409V9.9238H50.6617C51.6534 9.9238 52.4568 10.7286 52.4568 11.7203V12.8724Z"></path>
    <path
        d="M24.1019 2.84224C25.5915 1.32053 27.6028 0.571533 30.1567 0.571533C32.7105 0.571533 34.7218 1.34285 36.1877 2.86455C37.6773 4.38626 38.411 6.45193 38.411 9.08528C38.411 11.7186 37.6773 13.7857 36.2114 15.306C34.7455 16.804 32.7342 17.5544 30.1567 17.5544C27.5791 17.5544 25.5678 16.8054 24.1019 15.306C22.636 13.7843 21.9023 11.7186 21.9023 9.08528C21.9023 6.45193 22.636 4.36255 24.1019 2.84224ZM25.3781 10.1718C25.3781 13.02 27.2583 14.6728 30.1567 14.6728C33.055 14.6728 34.9129 12.9335 34.9129 10.1718V7.93179C34.9129 5.08365 33.055 3.45315 30.1567 3.45315C27.2583 3.45315 25.3781 5.21476 25.3781 7.93179V10.1718Z"></path>
</svg>