<svg width="703" height="191" viewBox="0 0 703 191" fill="none" xmlns="http://www.w3.org/2000/svg">
<g filter="url(#filter0_f_2007_2381)">
<mask id="path-1-inside-1_2007_2381" fill="white">
<path d="M231.304 62.374C222.728 57.8912 212.804 55.6723 201.578 55.6723C190.352 55.6723 180.607 58.1378 171.963 63.0688C163.297 67.9998 156.583 74.9033 151.801 83.7567C147.019 92.6325 144.616 103.122 144.616 115.248C144.616 127.374 147.086 137.505 152.026 146.515C156.965 155.548 163.993 162.474 173.108 167.337C182.224 172.201 192.934 174.622 205.237 174.622C214.353 174.622 222.638 172.874 230.069 169.4C237.501 165.903 243.541 161.106 248.188 154.965C252.813 148.824 255.889 141.875 257.416 134.143H232.584C230.9 140.665 227.487 145.708 222.323 149.272C217.159 152.836 210.783 154.606 203.194 154.606C196.952 154.606 191.429 153.239 186.557 150.505C181.685 147.77 177.891 143.938 175.174 139.029C172.435 134.098 170.93 128.315 170.616 121.636V120.269H258.561C258.718 118.744 258.831 117.198 258.898 115.607C258.965 114.015 259.01 112.536 259.01 111.169C258.853 99.9394 256.361 90.1222 251.489 81.717C246.617 73.3119 239.903 66.8567 231.327 62.374H231.304ZM171.492 102.517C172.098 97.048 173.894 92.2739 176.835 88.1946C179.799 84.0929 183.481 80.9101 187.882 78.6463C192.282 76.3601 197.155 75.2395 202.453 75.2395C211.12 75.2395 218.282 77.5929 223.985 82.2998C229.688 87.0067 232.988 93.7532 233.886 102.539H171.469L171.492 102.517ZM353.264 62.374C344.688 57.8912 334.764 55.6723 323.538 55.6723C312.312 55.6723 302.567 58.1378 293.923 63.0688C285.257 67.9998 278.544 74.9033 273.761 83.7567C268.979 92.6325 266.577 103.122 266.577 115.248C266.577 127.374 269.046 137.505 273.986 146.515C278.925 155.548 285.953 162.474 295.068 167.337C304.184 172.201 314.894 174.622 327.197 174.622C336.313 174.622 344.598 172.874 352.03 169.4C359.461 165.903 365.501 161.106 370.148 154.965C374.774 148.824 377.85 141.875 379.376 134.143H354.544C352.86 140.665 349.448 145.708 344.284 149.272C339.12 152.836 332.743 154.606 325.154 154.606C318.913 154.606 313.389 153.239 308.517 150.505C303.645 147.77 299.851 143.938 297.134 139.029C294.395 134.098 292.891 128.315 292.576 121.636V120.269H380.521C380.678 118.744 380.791 117.198 380.858 115.607C380.926 114.015 380.97 112.536 380.97 111.169C380.813 99.9394 378.321 90.1222 373.449 81.717C368.577 73.3119 361.864 66.8567 353.287 62.374H353.264ZM293.452 102.517C294.058 97.048 295.854 92.2739 298.795 88.1946C301.759 84.0929 305.441 80.9101 309.842 78.6463C314.243 76.3601 319.115 75.2395 324.413 75.2395C333.08 75.2395 340.242 77.5929 345.945 82.2998C351.648 87.0067 354.948 93.7532 355.846 102.539H293.429L293.452 102.517ZM576.596 62.374C568.019 57.8912 558.096 55.6723 546.869 55.6723C535.643 55.6723 525.899 58.1378 517.255 63.0688C508.589 67.9998 501.875 74.9033 497.093 83.7567C492.311 92.6325 489.908 103.122 489.908 115.248C489.908 127.374 492.378 137.505 497.318 146.515C502.257 155.548 509.284 162.474 518.4 167.337C527.516 172.201 538.225 174.622 550.529 174.622C559.645 174.622 567.93 172.874 575.361 169.4C582.793 165.903 588.832 161.106 593.48 154.965C598.105 148.824 601.181 141.875 602.708 134.143H577.876C576.192 140.665 572.779 145.708 567.615 149.272C562.451 152.836 556.075 154.606 548.486 154.606C542.244 154.606 536.721 153.239 531.849 150.505C526.977 147.77 523.182 143.938 520.466 139.029C517.727 134.098 516.222 128.315 515.908 121.636V120.269H603.853C604.01 118.744 604.122 117.198 604.19 115.607C604.257 114.015 604.302 112.536 604.302 111.169C604.145 99.9394 601.653 90.1222 596.781 81.717C591.908 73.3119 585.195 66.8567 576.619 62.374H576.596ZM516.806 102.517C517.412 97.048 519.208 92.2739 522.15 88.1946C525.113 84.0929 528.795 80.9101 533.196 78.6463C537.597 76.3601 542.469 75.2395 547.768 75.2395C556.434 75.2395 563.596 77.5929 569.299 82.2998C575.002 87.0067 578.302 93.7532 579.201 102.539H516.784L516.806 102.517ZM689.912 57.0395V79.5653H639.956V173.277H615.214V89.248C615.214 69.8826 629.044 57.0395 648.443 57.0395H689.912ZM450.168 114.576L504.839 173.031L472.934 173.255L429.736 125.715H415.479V173.255H390.647V9.5H415.479V102.988H430.163L472.934 55.8964L504.839 56.1205L450.168 114.576ZM128.99 101.845C133.772 107.919 136.174 115.876 136.174 125.738C136.174 134.994 133.637 143.332 128.541 150.751C123.444 158.193 116.417 163.953 107.458 168.032C98.4997 172.134 88.3289 174.174 76.9232 174.174C64.3051 174.174 53.2362 171.932 43.6491 167.472C34.0845 163.012 26.6304 156.669 21.3317 148.488C16.0105 140.307 13.204 130.982 12.9121 120.515L38.4402 120.739C39.2036 130.153 43.0654 137.729 50.0704 143.489C57.0531 149.25 66.1013 152.141 77.1926 152.141C86.9144 152.141 94.7727 150.101 100.767 146C106.762 141.898 109.771 136.07 109.771 128.494C109.771 123.182 108.087 118.946 104.764 115.763C101.419 112.581 97.0179 110.227 91.5396 108.703C86.0612 107.179 78.0907 105.453 67.628 103.481L66.483 103.257C56.604 101.598 48.0273 99.2446 40.7303 96.1963C33.4334 93.1704 27.5509 88.6205 23.0829 82.5463C18.5925 76.4946 16.3697 68.605 16.3697 58.8999C16.3697 49.7999 18.7721 41.6861 23.5544 34.5585C28.3367 27.431 35.0499 21.8948 43.7165 17.95C52.383 14.0052 62.1721 12.0328 73.1064 12.0328C84.0406 12.0328 94.6829 14.1172 103.641 18.2862C112.6 22.4551 119.672 28.2827 124.836 35.7913C130 43.2999 132.739 51.8171 133.031 61.3878H107.503C106.448 53.2068 102.788 46.6395 96.5689 41.7085C90.3496 36.7775 82.5138 34.312 73.1064 34.312C63.6989 34.312 56.2448 36.2844 50.7889 40.2292C45.3106 44.174 42.5939 49.7775 42.5939 57.0619C42.5939 62.374 44.2329 66.4757 47.4884 69.3447C50.744 72.236 55.1222 74.4998 60.578 76.1584C66.0564 77.8394 73.8024 79.5653 83.816 81.3808H84.0406C94.3686 83.1963 103.26 85.5498 110.691 88.4411C118.123 91.3325 124.252 95.7928 129.035 101.867L128.99 101.845Z"/>
</mask>
<path d="M231.304 62.374C222.728 57.8912 212.804 55.6723 201.578 55.6723C190.352 55.6723 180.607 58.1378 171.963 63.0688C163.297 67.9998 156.583 74.9033 151.801 83.7567C147.019 92.6325 144.616 103.122 144.616 115.248C144.616 127.374 147.086 137.505 152.026 146.515C156.965 155.548 163.993 162.474 173.108 167.337C182.224 172.201 192.934 174.622 205.237 174.622C214.353 174.622 222.638 172.874 230.069 169.4C237.501 165.903 243.541 161.106 248.188 154.965C252.813 148.824 255.889 141.875 257.416 134.143H232.584C230.9 140.665 227.487 145.708 222.323 149.272C217.159 152.836 210.783 154.606 203.194 154.606C196.952 154.606 191.429 153.239 186.557 150.505C181.685 147.77 177.891 143.938 175.174 139.029C172.435 134.098 170.93 128.315 170.616 121.636V120.269H258.561C258.718 118.744 258.831 117.198 258.898 115.607C258.965 114.015 259.01 112.536 259.01 111.169C258.853 99.9394 256.361 90.1222 251.489 81.717C246.617 73.3119 239.903 66.8567 231.327 62.374H231.304ZM171.492 102.517C172.098 97.048 173.894 92.2739 176.835 88.1946C179.799 84.0929 183.481 80.9101 187.882 78.6463C192.282 76.3601 197.155 75.2395 202.453 75.2395C211.12 75.2395 218.282 77.5929 223.985 82.2998C229.688 87.0067 232.988 93.7532 233.886 102.539H171.469L171.492 102.517ZM353.264 62.374C344.688 57.8912 334.764 55.6723 323.538 55.6723C312.312 55.6723 302.567 58.1378 293.923 63.0688C285.257 67.9998 278.544 74.9033 273.761 83.7567C268.979 92.6325 266.577 103.122 266.577 115.248C266.577 127.374 269.046 137.505 273.986 146.515C278.925 155.548 285.953 162.474 295.068 167.337C304.184 172.201 314.894 174.622 327.197 174.622C336.313 174.622 344.598 172.874 352.03 169.4C359.461 165.903 365.501 161.106 370.148 154.965C374.774 148.824 377.85 141.875 379.376 134.143H354.544C352.86 140.665 349.448 145.708 344.284 149.272C339.12 152.836 332.743 154.606 325.154 154.606C318.913 154.606 313.389 153.239 308.517 150.505C303.645 147.77 299.851 143.938 297.134 139.029C294.395 134.098 292.891 128.315 292.576 121.636V120.269H380.521C380.678 118.744 380.791 117.198 380.858 115.607C380.926 114.015 380.97 112.536 380.97 111.169C380.813 99.9394 378.321 90.1222 373.449 81.717C368.577 73.3119 361.864 66.8567 353.287 62.374H353.264ZM293.452 102.517C294.058 97.048 295.854 92.2739 298.795 88.1946C301.759 84.0929 305.441 80.9101 309.842 78.6463C314.243 76.3601 319.115 75.2395 324.413 75.2395C333.08 75.2395 340.242 77.5929 345.945 82.2998C351.648 87.0067 354.948 93.7532 355.846 102.539H293.429L293.452 102.517ZM576.596 62.374C568.019 57.8912 558.096 55.6723 546.869 55.6723C535.643 55.6723 525.899 58.1378 517.255 63.0688C508.589 67.9998 501.875 74.9033 497.093 83.7567C492.311 92.6325 489.908 103.122 489.908 115.248C489.908 127.374 492.378 137.505 497.318 146.515C502.257 155.548 509.284 162.474 518.4 167.337C527.516 172.201 538.225 174.622 550.529 174.622C559.645 174.622 567.93 172.874 575.361 169.4C582.793 165.903 588.832 161.106 593.48 154.965C598.105 148.824 601.181 141.875 602.708 134.143H577.876C576.192 140.665 572.779 145.708 567.615 149.272C562.451 152.836 556.075 154.606 548.486 154.606C542.244 154.606 536.721 153.239 531.849 150.505C526.977 147.77 523.182 143.938 520.466 139.029C517.727 134.098 516.222 128.315 515.908 121.636V120.269H603.853C604.01 118.744 604.122 117.198 604.19 115.607C604.257 114.015 604.302 112.536 604.302 111.169C604.145 99.9394 601.653 90.1222 596.781 81.717C591.908 73.3119 585.195 66.8567 576.619 62.374H576.596ZM516.806 102.517C517.412 97.048 519.208 92.2739 522.15 88.1946C525.113 84.0929 528.795 80.9101 533.196 78.6463C537.597 76.3601 542.469 75.2395 547.768 75.2395C556.434 75.2395 563.596 77.5929 569.299 82.2998C575.002 87.0067 578.302 93.7532 579.201 102.539H516.784L516.806 102.517ZM689.912 57.0395V79.5653H639.956V173.277H615.214V89.248C615.214 69.8826 629.044 57.0395 648.443 57.0395H689.912ZM450.168 114.576L504.839 173.031L472.934 173.255L429.736 125.715H415.479V173.255H390.647V9.5H415.479V102.988H430.163L472.934 55.8964L504.839 56.1205L450.168 114.576ZM128.99 101.845C133.772 107.919 136.174 115.876 136.174 125.738C136.174 134.994 133.637 143.332 128.541 150.751C123.444 158.193 116.417 163.953 107.458 168.032C98.4997 172.134 88.3289 174.174 76.9232 174.174C64.3051 174.174 53.2362 171.932 43.6491 167.472C34.0845 163.012 26.6304 156.669 21.3317 148.488C16.0105 140.307 13.204 130.982 12.9121 120.515L38.4402 120.739C39.2036 130.153 43.0654 137.729 50.0704 143.489C57.0531 149.25 66.1013 152.141 77.1926 152.141C86.9144 152.141 94.7727 150.101 100.767 146C106.762 141.898 109.771 136.07 109.771 128.494C109.771 123.182 108.087 118.946 104.764 115.763C101.419 112.581 97.0179 110.227 91.5396 108.703C86.0612 107.179 78.0907 105.453 67.628 103.481L66.483 103.257C56.604 101.598 48.0273 99.2446 40.7303 96.1963C33.4334 93.1704 27.5509 88.6205 23.0829 82.5463C18.5925 76.4946 16.3697 68.605 16.3697 58.8999C16.3697 49.7999 18.7721 41.6861 23.5544 34.5585C28.3367 27.431 35.0499 21.8948 43.7165 17.95C52.383 14.0052 62.1721 12.0328 73.1064 12.0328C84.0406 12.0328 94.6829 14.1172 103.641 18.2862C112.6 22.4551 119.672 28.2827 124.836 35.7913C130 43.2999 132.739 51.8171 133.031 61.3878H107.503C106.448 53.2068 102.788 46.6395 96.5689 41.7085C90.3496 36.7775 82.5138 34.312 73.1064 34.312C63.6989 34.312 56.2448 36.2844 50.7889 40.2292C45.3106 44.174 42.5939 49.7775 42.5939 57.0619C42.5939 62.374 44.2329 66.4757 47.4884 69.3447C50.744 72.236 55.1222 74.4998 60.578 76.1584C66.0564 77.8394 73.8024 79.5653 83.816 81.3808H84.0406C94.3686 83.1963 103.26 85.5498 110.691 88.4411C118.123 91.3325 124.252 95.7928 129.035 101.867L128.99 101.845Z" fill="url(#paint0_linear_2007_2381)"/>
<path d="M231.304 62.374C222.728 57.8912 212.804 55.6723 201.578 55.6723C190.352 55.6723 180.607 58.1378 171.963 63.0688C163.297 67.9998 156.583 74.9033 151.801 83.7567C147.019 92.6325 144.616 103.122 144.616 115.248C144.616 127.374 147.086 137.505 152.026 146.515C156.965 155.548 163.993 162.474 173.108 167.337C182.224 172.201 192.934 174.622 205.237 174.622C214.353 174.622 222.638 172.874 230.069 169.4C237.501 165.903 243.541 161.106 248.188 154.965C252.813 148.824 255.889 141.875 257.416 134.143H232.584C230.9 140.665 227.487 145.708 222.323 149.272C217.159 152.836 210.783 154.606 203.194 154.606C196.952 154.606 191.429 153.239 186.557 150.505C181.685 147.77 177.891 143.938 175.174 139.029C172.435 134.098 170.93 128.315 170.616 121.636V120.269H258.561C258.718 118.744 258.831 117.198 258.898 115.607C258.965 114.015 259.01 112.536 259.01 111.169C258.853 99.9394 256.361 90.1222 251.489 81.717C246.617 73.3119 239.903 66.8567 231.327 62.374H231.304ZM171.492 102.517C172.098 97.048 173.894 92.2739 176.835 88.1946C179.799 84.0929 183.481 80.9101 187.882 78.6463C192.282 76.3601 197.155 75.2395 202.453 75.2395C211.12 75.2395 218.282 77.5929 223.985 82.2998C229.688 87.0067 232.988 93.7532 233.886 102.539H171.469L171.492 102.517ZM353.264 62.374C344.688 57.8912 334.764 55.6723 323.538 55.6723C312.312 55.6723 302.567 58.1378 293.923 63.0688C285.257 67.9998 278.544 74.9033 273.761 83.7567C268.979 92.6325 266.577 103.122 266.577 115.248C266.577 127.374 269.046 137.505 273.986 146.515C278.925 155.548 285.953 162.474 295.068 167.337C304.184 172.201 314.894 174.622 327.197 174.622C336.313 174.622 344.598 172.874 352.03 169.4C359.461 165.903 365.501 161.106 370.148 154.965C374.774 148.824 377.85 141.875 379.376 134.143H354.544C352.86 140.665 349.448 145.708 344.284 149.272C339.12 152.836 332.743 154.606 325.154 154.606C318.913 154.606 313.389 153.239 308.517 150.505C303.645 147.77 299.851 143.938 297.134 139.029C294.395 134.098 292.891 128.315 292.576 121.636V120.269H380.521C380.678 118.744 380.791 117.198 380.858 115.607C380.926 114.015 380.97 112.536 380.97 111.169C380.813 99.9394 378.321 90.1222 373.449 81.717C368.577 73.3119 361.864 66.8567 353.287 62.374H353.264ZM293.452 102.517C294.058 97.048 295.854 92.2739 298.795 88.1946C301.759 84.0929 305.441 80.9101 309.842 78.6463C314.243 76.3601 319.115 75.2395 324.413 75.2395C333.08 75.2395 340.242 77.5929 345.945 82.2998C351.648 87.0067 354.948 93.7532 355.846 102.539H293.429L293.452 102.517ZM576.596 62.374C568.019 57.8912 558.096 55.6723 546.869 55.6723C535.643 55.6723 525.899 58.1378 517.255 63.0688C508.589 67.9998 501.875 74.9033 497.093 83.7567C492.311 92.6325 489.908 103.122 489.908 115.248C489.908 127.374 492.378 137.505 497.318 146.515C502.257 155.548 509.284 162.474 518.4 167.337C527.516 172.201 538.225 174.622 550.529 174.622C559.645 174.622 567.93 172.874 575.361 169.4C582.793 165.903 588.832 161.106 593.48 154.965C598.105 148.824 601.181 141.875 602.708 134.143H577.876C576.192 140.665 572.779 145.708 567.615 149.272C562.451 152.836 556.075 154.606 548.486 154.606C542.244 154.606 536.721 153.239 531.849 150.505C526.977 147.77 523.182 143.938 520.466 139.029C517.727 134.098 516.222 128.315 515.908 121.636V120.269H603.853C604.01 118.744 604.122 117.198 604.19 115.607C604.257 114.015 604.302 112.536 604.302 111.169C604.145 99.9394 601.653 90.1222 596.781 81.717C591.908 73.3119 585.195 66.8567 576.619 62.374H576.596ZM516.806 102.517C517.412 97.048 519.208 92.2739 522.15 88.1946C525.113 84.0929 528.795 80.9101 533.196 78.6463C537.597 76.3601 542.469 75.2395 547.768 75.2395C556.434 75.2395 563.596 77.5929 569.299 82.2998C575.002 87.0067 578.302 93.7532 579.201 102.539H516.784L516.806 102.517ZM689.912 57.0395V79.5653H639.956V173.277H615.214V89.248C615.214 69.8826 629.044 57.0395 648.443 57.0395H689.912ZM450.168 114.576L504.839 173.031L472.934 173.255L429.736 125.715H415.479V173.255H390.647V9.5H415.479V102.988H430.163L472.934 55.8964L504.839 56.1205L450.168 114.576ZM128.99 101.845C133.772 107.919 136.174 115.876 136.174 125.738C136.174 134.994 133.637 143.332 128.541 150.751C123.444 158.193 116.417 163.953 107.458 168.032C98.4997 172.134 88.3289 174.174 76.9232 174.174C64.3051 174.174 53.2362 171.932 43.6491 167.472C34.0845 163.012 26.6304 156.669 21.3317 148.488C16.0105 140.307 13.204 130.982 12.9121 120.515L38.4402 120.739C39.2036 130.153 43.0654 137.729 50.0704 143.489C57.0531 149.25 66.1013 152.141 77.1926 152.141C86.9144 152.141 94.7727 150.101 100.767 146C106.762 141.898 109.771 136.07 109.771 128.494C109.771 123.182 108.087 118.946 104.764 115.763C101.419 112.581 97.0179 110.227 91.5396 108.703C86.0612 107.179 78.0907 105.453 67.628 103.481L66.483 103.257C56.604 101.598 48.0273 99.2446 40.7303 96.1963C33.4334 93.1704 27.5509 88.6205 23.0829 82.5463C18.5925 76.4946 16.3697 68.605 16.3697 58.8999C16.3697 49.7999 18.7721 41.6861 23.5544 34.5585C28.3367 27.431 35.0499 21.8948 43.7165 17.95C52.383 14.0052 62.1721 12.0328 73.1064 12.0328C84.0406 12.0328 94.6829 14.1172 103.641 18.2862C112.6 22.4551 119.672 28.2827 124.836 35.7913C130 43.2999 132.739 51.8171 133.031 61.3878H107.503C106.448 53.2068 102.788 46.6395 96.5689 41.7085C90.3496 36.7775 82.5138 34.312 73.1064 34.312C63.6989 34.312 56.2448 36.2844 50.7889 40.2292C45.3106 44.174 42.5939 49.7775 42.5939 57.0619C42.5939 62.374 44.2329 66.4757 47.4884 69.3447C50.744 72.236 55.1222 74.4998 60.578 76.1584C66.0564 77.8394 73.8024 79.5653 83.816 81.3808H84.0406C94.3686 83.1963 103.26 85.5498 110.691 88.4411C118.123 91.3325 124.252 95.7928 129.035 101.867L128.99 101.845Z" stroke="white" stroke-width="2.09677" mask="url(#path-1-inside-1_2007_2381)"/>
</g>
<g filter="url(#filter1_ddi_2007_2381)">
<mask id="path-2-outside-2_2007_2381" maskUnits="userSpaceOnUse" x="11.9121" y="8.5" width="679" height="167" fill="black">
<rect fill="white" x="11.9121" y="8.5" width="679" height="167"/>
<path d="M231.304 62.374C222.728 57.8912 212.804 55.6723 201.578 55.6723C190.352 55.6723 180.607 58.1378 171.963 63.0688C163.297 67.9998 156.583 74.9033 151.801 83.7567C147.019 92.6325 144.616 103.122 144.616 115.248C144.616 127.374 147.086 137.505 152.026 146.515C156.965 155.548 163.993 162.474 173.108 167.337C182.224 172.201 192.934 174.622 205.237 174.622C214.353 174.622 222.638 172.874 230.069 169.4C237.501 165.903 243.541 161.106 248.188 154.965C252.813 148.824 255.889 141.875 257.416 134.143H232.584C230.9 140.665 227.487 145.708 222.323 149.272C217.159 152.836 210.783 154.606 203.194 154.606C196.952 154.606 191.429 153.239 186.557 150.505C181.685 147.77 177.891 143.938 175.174 139.029C172.435 134.098 170.93 128.315 170.616 121.636V120.269H258.561C258.718 118.744 258.831 117.198 258.898 115.607C258.965 114.015 259.01 112.536 259.01 111.169C258.853 99.9394 256.361 90.1222 251.489 81.717C246.617 73.3119 239.903 66.8567 231.327 62.374H231.304ZM171.492 102.517C172.098 97.048 173.894 92.2739 176.835 88.1946C179.799 84.0929 183.481 80.9101 187.882 78.6463C192.282 76.3601 197.155 75.2395 202.453 75.2395C211.12 75.2395 218.282 77.5929 223.985 82.2998C229.688 87.0067 232.988 93.7532 233.886 102.539H171.469L171.492 102.517ZM353.264 62.374C344.688 57.8912 334.764 55.6723 323.538 55.6723C312.312 55.6723 302.567 58.1378 293.923 63.0688C285.257 67.9998 278.544 74.9033 273.761 83.7567C268.979 92.6325 266.577 103.122 266.577 115.248C266.577 127.374 269.046 137.505 273.986 146.515C278.925 155.548 285.953 162.474 295.068 167.337C304.184 172.201 314.894 174.622 327.197 174.622C336.313 174.622 344.598 172.874 352.03 169.4C359.461 165.903 365.501 161.106 370.148 154.965C374.774 148.824 377.85 141.875 379.376 134.143H354.544C352.86 140.665 349.448 145.708 344.284 149.272C339.12 152.836 332.743 154.606 325.154 154.606C318.913 154.606 313.389 153.239 308.517 150.505C303.645 147.77 299.851 143.938 297.134 139.029C294.395 134.098 292.891 128.315 292.576 121.636V120.269H380.521C380.678 118.744 380.791 117.198 380.858 115.607C380.925 114.015 380.97 112.536 380.97 111.169C380.813 99.9394 378.321 90.1222 373.449 81.717C368.577 73.3119 361.864 66.8567 353.287 62.374H353.264ZM293.452 102.517C294.058 97.048 295.854 92.2739 298.796 88.1946C301.759 84.0929 305.441 80.9101 309.842 78.6463C314.243 76.3601 319.115 75.2395 324.413 75.2395C333.08 75.2395 340.242 77.5929 345.945 82.2998C351.648 87.0067 354.948 93.7532 355.846 102.539H293.429L293.452 102.517ZM576.596 62.374C568.019 57.8912 558.096 55.6723 546.869 55.6723C535.643 55.6723 525.899 58.1378 517.255 63.0688C508.589 67.9998 501.875 74.9033 497.093 83.7567C492.311 92.6325 489.908 103.122 489.908 115.248C489.908 127.374 492.378 137.505 497.318 146.515C502.257 155.548 509.284 162.474 518.4 167.337C527.516 172.201 538.225 174.622 550.529 174.622C559.645 174.622 567.93 172.874 575.361 169.4C582.793 165.903 588.833 161.106 593.48 154.965C598.105 148.824 601.181 141.875 602.708 134.143H577.876C576.192 140.665 572.779 145.708 567.615 149.272C562.451 152.836 556.075 154.606 548.486 154.606C542.244 154.606 536.721 153.239 531.849 150.505C526.977 147.77 523.182 143.938 520.466 139.029C517.726 134.098 516.222 128.315 515.908 121.636V120.269H603.853C604.01 118.744 604.122 117.198 604.19 115.607C604.257 114.015 604.302 112.536 604.302 111.169C604.145 99.9394 601.653 90.1222 596.781 81.717C591.908 73.3119 585.195 66.8567 576.619 62.374H576.596ZM516.806 102.517C517.412 97.048 519.208 92.2739 522.15 88.1946C525.113 84.0929 528.795 80.9101 533.196 78.6463C537.597 76.3601 542.469 75.2395 547.768 75.2395C556.434 75.2395 563.596 77.5929 569.299 82.2998C575.002 87.0067 578.302 93.7532 579.201 102.539H516.784L516.806 102.517ZM689.912 57.0395V79.5653H639.956V173.277H615.214V89.248C615.214 69.8826 629.044 57.0395 648.443 57.0395H689.912ZM450.168 114.576L504.839 173.031L472.934 173.255L429.736 125.715H415.479V173.255H390.647V9.5H415.479V102.988H430.163L472.934 55.8964L504.839 56.1205L450.168 114.576ZM128.99 101.845C133.772 107.919 136.174 115.876 136.174 125.738C136.174 134.994 133.637 143.332 128.541 150.751C123.444 158.193 116.417 163.953 107.458 168.032C98.4997 172.134 88.3289 174.174 76.9232 174.174C64.3051 174.174 53.2362 171.932 43.6491 167.472C34.0845 163.012 26.6304 156.669 21.3317 148.488C16.0105 140.307 13.204 130.982 12.9121 120.515L38.4402 120.739C39.2036 130.153 43.0654 137.729 50.0704 143.489C57.0531 149.25 66.1013 152.141 77.1926 152.141C86.9144 152.141 94.7727 150.101 100.767 146C106.762 141.898 109.771 136.07 109.771 128.494C109.771 123.182 108.087 118.946 104.764 115.763C101.419 112.581 97.0179 110.227 91.5396 108.703C86.0613 107.179 78.0907 105.453 67.628 103.481L66.483 103.257C56.604 101.598 48.0273 99.2446 40.7303 96.1963C33.4334 93.1704 27.5509 88.6205 23.0829 82.5463C18.5925 76.4946 16.3697 68.605 16.3697 58.8999C16.3697 49.7999 18.7721 41.6861 23.5544 34.5585C28.3367 27.431 35.0499 21.8948 43.7165 17.95C52.383 14.0052 62.1721 12.0328 73.1064 12.0328C84.0406 12.0328 94.6829 14.1172 103.641 18.2862C112.6 22.4551 119.672 28.2827 124.836 35.7913C130 43.2999 132.739 51.8171 133.031 61.3878H107.503C106.448 53.2068 102.788 46.6395 96.5689 41.7085C90.3496 36.7775 82.5138 34.312 73.1064 34.312C63.6989 34.312 56.2448 36.2844 50.7889 40.2292C45.3106 44.174 42.5939 49.7775 42.5939 57.0619C42.5939 62.374 44.2329 66.4757 47.4884 69.3447C50.744 72.236 55.1222 74.4998 60.578 76.1584C66.0564 77.8394 73.8024 79.5653 83.816 81.3808H84.0406C94.3686 83.1963 103.26 85.5498 110.691 88.4411C118.123 91.3325 124.252 95.7928 129.035 101.867L128.99 101.845Z"/>
</mask>
<path d="M231.304 62.374C222.728 57.8912 212.804 55.6723 201.578 55.6723C190.352 55.6723 180.607 58.1378 171.963 63.0688C163.297 67.9998 156.583 74.9033 151.801 83.7567C147.019 92.6325 144.616 103.122 144.616 115.248C144.616 127.374 147.086 137.505 152.026 146.515C156.965 155.548 163.993 162.474 173.108 167.337C182.224 172.201 192.934 174.622 205.237 174.622C214.353 174.622 222.638 172.874 230.069 169.4C237.501 165.903 243.541 161.106 248.188 154.965C252.813 148.824 255.889 141.875 257.416 134.143H232.584C230.9 140.665 227.487 145.708 222.323 149.272C217.159 152.836 210.783 154.606 203.194 154.606C196.952 154.606 191.429 153.239 186.557 150.505C181.685 147.77 177.891 143.938 175.174 139.029C172.435 134.098 170.93 128.315 170.616 121.636V120.269H258.561C258.718 118.744 258.831 117.198 258.898 115.607C258.965 114.015 259.01 112.536 259.01 111.169C258.853 99.9394 256.361 90.1222 251.489 81.717C246.617 73.3119 239.903 66.8567 231.327 62.374H231.304ZM171.492 102.517C172.098 97.048 173.894 92.2739 176.835 88.1946C179.799 84.0929 183.481 80.9101 187.882 78.6463C192.282 76.3601 197.155 75.2395 202.453 75.2395C211.12 75.2395 218.282 77.5929 223.985 82.2998C229.688 87.0067 232.988 93.7532 233.886 102.539H171.469L171.492 102.517ZM353.264 62.374C344.688 57.8912 334.764 55.6723 323.538 55.6723C312.312 55.6723 302.567 58.1378 293.923 63.0688C285.257 67.9998 278.544 74.9033 273.761 83.7567C268.979 92.6325 266.577 103.122 266.577 115.248C266.577 127.374 269.046 137.505 273.986 146.515C278.925 155.548 285.953 162.474 295.068 167.337C304.184 172.201 314.894 174.622 327.197 174.622C336.313 174.622 344.598 172.874 352.03 169.4C359.461 165.903 365.501 161.106 370.148 154.965C374.774 148.824 377.85 141.875 379.376 134.143H354.544C352.86 140.665 349.448 145.708 344.284 149.272C339.12 152.836 332.743 154.606 325.154 154.606C318.913 154.606 313.389 153.239 308.517 150.505C303.645 147.77 299.851 143.938 297.134 139.029C294.395 134.098 292.891 128.315 292.576 121.636V120.269H380.521C380.678 118.744 380.791 117.198 380.858 115.607C380.925 114.015 380.97 112.536 380.97 111.169C380.813 99.9394 378.321 90.1222 373.449 81.717C368.577 73.3119 361.864 66.8567 353.287 62.374H353.264ZM293.452 102.517C294.058 97.048 295.854 92.2739 298.796 88.1946C301.759 84.0929 305.441 80.9101 309.842 78.6463C314.243 76.3601 319.115 75.2395 324.413 75.2395C333.08 75.2395 340.242 77.5929 345.945 82.2998C351.648 87.0067 354.948 93.7532 355.846 102.539H293.429L293.452 102.517ZM576.596 62.374C568.019 57.8912 558.096 55.6723 546.869 55.6723C535.643 55.6723 525.899 58.1378 517.255 63.0688C508.589 67.9998 501.875 74.9033 497.093 83.7567C492.311 92.6325 489.908 103.122 489.908 115.248C489.908 127.374 492.378 137.505 497.318 146.515C502.257 155.548 509.284 162.474 518.4 167.337C527.516 172.201 538.225 174.622 550.529 174.622C559.645 174.622 567.93 172.874 575.361 169.4C582.793 165.903 588.833 161.106 593.48 154.965C598.105 148.824 601.181 141.875 602.708 134.143H577.876C576.192 140.665 572.779 145.708 567.615 149.272C562.451 152.836 556.075 154.606 548.486 154.606C542.244 154.606 536.721 153.239 531.849 150.505C526.977 147.77 523.182 143.938 520.466 139.029C517.726 134.098 516.222 128.315 515.908 121.636V120.269H603.853C604.01 118.744 604.122 117.198 604.19 115.607C604.257 114.015 604.302 112.536 604.302 111.169C604.145 99.9394 601.653 90.1222 596.781 81.717C591.908 73.3119 585.195 66.8567 576.619 62.374H576.596ZM516.806 102.517C517.412 97.048 519.208 92.2739 522.15 88.1946C525.113 84.0929 528.795 80.9101 533.196 78.6463C537.597 76.3601 542.469 75.2395 547.768 75.2395C556.434 75.2395 563.596 77.5929 569.299 82.2998C575.002 87.0067 578.302 93.7532 579.201 102.539H516.784L516.806 102.517ZM689.912 57.0395V79.5653H639.956V173.277H615.214V89.248C615.214 69.8826 629.044 57.0395 648.443 57.0395H689.912ZM450.168 114.576L504.839 173.031L472.934 173.255L429.736 125.715H415.479V173.255H390.647V9.5H415.479V102.988H430.163L472.934 55.8964L504.839 56.1205L450.168 114.576ZM128.99 101.845C133.772 107.919 136.174 115.876 136.174 125.738C136.174 134.994 133.637 143.332 128.541 150.751C123.444 158.193 116.417 163.953 107.458 168.032C98.4997 172.134 88.3289 174.174 76.9232 174.174C64.3051 174.174 53.2362 171.932 43.6491 167.472C34.0845 163.012 26.6304 156.669 21.3317 148.488C16.0105 140.307 13.204 130.982 12.9121 120.515L38.4402 120.739C39.2036 130.153 43.0654 137.729 50.0704 143.489C57.0531 149.25 66.1013 152.141 77.1926 152.141C86.9144 152.141 94.7727 150.101 100.767 146C106.762 141.898 109.771 136.07 109.771 128.494C109.771 123.182 108.087 118.946 104.764 115.763C101.419 112.581 97.0179 110.227 91.5396 108.703C86.0613 107.179 78.0907 105.453 67.628 103.481L66.483 103.257C56.604 101.598 48.0273 99.2446 40.7303 96.1963C33.4334 93.1704 27.5509 88.6205 23.0829 82.5463C18.5925 76.4946 16.3697 68.605 16.3697 58.8999C16.3697 49.7999 18.7721 41.6861 23.5544 34.5585C28.3367 27.431 35.0499 21.8948 43.7165 17.95C52.383 14.0052 62.1721 12.0328 73.1064 12.0328C84.0406 12.0328 94.6829 14.1172 103.641 18.2862C112.6 22.4551 119.672 28.2827 124.836 35.7913C130 43.2999 132.739 51.8171 133.031 61.3878H107.503C106.448 53.2068 102.788 46.6395 96.5689 41.7085C90.3496 36.7775 82.5138 34.312 73.1064 34.312C63.6989 34.312 56.2448 36.2844 50.7889 40.2292C45.3106 44.174 42.5939 49.7775 42.5939 57.0619C42.5939 62.374 44.2329 66.4757 47.4884 69.3447C50.744 72.236 55.1222 74.4998 60.578 76.1584C66.0564 77.8394 73.8024 79.5653 83.816 81.3808H84.0406C94.3686 83.1963 103.26 85.5498 110.691 88.4411C118.123 91.3325 124.252 95.7928 129.035 101.867L128.99 101.845Z" fill="url(#paint1_linear_2007_2381)" shape-rendering="crispEdges"/>
<path d="M231.304 62.374C222.728 57.8912 212.804 55.6723 201.578 55.6723C190.352 55.6723 180.607 58.1378 171.963 63.0688C163.297 67.9998 156.583 74.9033 151.801 83.7567C147.019 92.6325 144.616 103.122 144.616 115.248C144.616 127.374 147.086 137.505 152.026 146.515C156.965 155.548 163.993 162.474 173.108 167.337C182.224 172.201 192.934 174.622 205.237 174.622C214.353 174.622 222.638 172.874 230.069 169.4C237.501 165.903 243.541 161.106 248.188 154.965C252.813 148.824 255.889 141.875 257.416 134.143H232.584C230.9 140.665 227.487 145.708 222.323 149.272C217.159 152.836 210.783 154.606 203.194 154.606C196.952 154.606 191.429 153.239 186.557 150.505C181.685 147.77 177.891 143.938 175.174 139.029C172.435 134.098 170.93 128.315 170.616 121.636V120.269H258.561C258.718 118.744 258.831 117.198 258.898 115.607C258.965 114.015 259.01 112.536 259.01 111.169C258.853 99.9394 256.361 90.1222 251.489 81.717C246.617 73.3119 239.903 66.8567 231.327 62.374H231.304ZM171.492 102.517C172.098 97.048 173.894 92.2739 176.835 88.1946C179.799 84.0929 183.481 80.9101 187.882 78.6463C192.282 76.3601 197.155 75.2395 202.453 75.2395C211.12 75.2395 218.282 77.5929 223.985 82.2998C229.688 87.0067 232.988 93.7532 233.886 102.539H171.469L171.492 102.517ZM353.264 62.374C344.688 57.8912 334.764 55.6723 323.538 55.6723C312.312 55.6723 302.567 58.1378 293.923 63.0688C285.257 67.9998 278.544 74.9033 273.761 83.7567C268.979 92.6325 266.577 103.122 266.577 115.248C266.577 127.374 269.046 137.505 273.986 146.515C278.925 155.548 285.953 162.474 295.068 167.337C304.184 172.201 314.894 174.622 327.197 174.622C336.313 174.622 344.598 172.874 352.03 169.4C359.461 165.903 365.501 161.106 370.148 154.965C374.774 148.824 377.85 141.875 379.376 134.143H354.544C352.86 140.665 349.448 145.708 344.284 149.272C339.12 152.836 332.743 154.606 325.154 154.606C318.913 154.606 313.389 153.239 308.517 150.505C303.645 147.77 299.851 143.938 297.134 139.029C294.395 134.098 292.891 128.315 292.576 121.636V120.269H380.521C380.678 118.744 380.791 117.198 380.858 115.607C380.925 114.015 380.97 112.536 380.97 111.169C380.813 99.9394 378.321 90.1222 373.449 81.717C368.577 73.3119 361.864 66.8567 353.287 62.374H353.264ZM293.452 102.517C294.058 97.048 295.854 92.2739 298.796 88.1946C301.759 84.0929 305.441 80.9101 309.842 78.6463C314.243 76.3601 319.115 75.2395 324.413 75.2395C333.08 75.2395 340.242 77.5929 345.945 82.2998C351.648 87.0067 354.948 93.7532 355.846 102.539H293.429L293.452 102.517ZM576.596 62.374C568.019 57.8912 558.096 55.6723 546.869 55.6723C535.643 55.6723 525.899 58.1378 517.255 63.0688C508.589 67.9998 501.875 74.9033 497.093 83.7567C492.311 92.6325 489.908 103.122 489.908 115.248C489.908 127.374 492.378 137.505 497.318 146.515C502.257 155.548 509.284 162.474 518.4 167.337C527.516 172.201 538.225 174.622 550.529 174.622C559.645 174.622 567.93 172.874 575.361 169.4C582.793 165.903 588.833 161.106 593.48 154.965C598.105 148.824 601.181 141.875 602.708 134.143H577.876C576.192 140.665 572.779 145.708 567.615 149.272C562.451 152.836 556.075 154.606 548.486 154.606C542.244 154.606 536.721 153.239 531.849 150.505C526.977 147.77 523.182 143.938 520.466 139.029C517.726 134.098 516.222 128.315 515.908 121.636V120.269H603.853C604.01 118.744 604.122 117.198 604.19 115.607C604.257 114.015 604.302 112.536 604.302 111.169C604.145 99.9394 601.653 90.1222 596.781 81.717C591.908 73.3119 585.195 66.8567 576.619 62.374H576.596ZM516.806 102.517C517.412 97.048 519.208 92.2739 522.15 88.1946C525.113 84.0929 528.795 80.9101 533.196 78.6463C537.597 76.3601 542.469 75.2395 547.768 75.2395C556.434 75.2395 563.596 77.5929 569.299 82.2998C575.002 87.0067 578.302 93.7532 579.201 102.539H516.784L516.806 102.517ZM689.912 57.0395V79.5653H639.956V173.277H615.214V89.248C615.214 69.8826 629.044 57.0395 648.443 57.0395H689.912ZM450.168 114.576L504.839 173.031L472.934 173.255L429.736 125.715H415.479V173.255H390.647V9.5H415.479V102.988H430.163L472.934 55.8964L504.839 56.1205L450.168 114.576ZM128.99 101.845C133.772 107.919 136.174 115.876 136.174 125.738C136.174 134.994 133.637 143.332 128.541 150.751C123.444 158.193 116.417 163.953 107.458 168.032C98.4997 172.134 88.3289 174.174 76.9232 174.174C64.3051 174.174 53.2362 171.932 43.6491 167.472C34.0845 163.012 26.6304 156.669 21.3317 148.488C16.0105 140.307 13.204 130.982 12.9121 120.515L38.4402 120.739C39.2036 130.153 43.0654 137.729 50.0704 143.489C57.0531 149.25 66.1013 152.141 77.1926 152.141C86.9144 152.141 94.7727 150.101 100.767 146C106.762 141.898 109.771 136.07 109.771 128.494C109.771 123.182 108.087 118.946 104.764 115.763C101.419 112.581 97.0179 110.227 91.5396 108.703C86.0613 107.179 78.0907 105.453 67.628 103.481L66.483 103.257C56.604 101.598 48.0273 99.2446 40.7303 96.1963C33.4334 93.1704 27.5509 88.6205 23.0829 82.5463C18.5925 76.4946 16.3697 68.605 16.3697 58.8999C16.3697 49.7999 18.7721 41.6861 23.5544 34.5585C28.3367 27.431 35.0499 21.8948 43.7165 17.95C52.383 14.0052 62.1721 12.0328 73.1064 12.0328C84.0406 12.0328 94.6829 14.1172 103.641 18.2862C112.6 22.4551 119.672 28.2827 124.836 35.7913C130 43.2999 132.739 51.8171 133.031 61.3878H107.503C106.448 53.2068 102.788 46.6395 96.5689 41.7085C90.3496 36.7775 82.5138 34.312 73.1064 34.312C63.6989 34.312 56.2448 36.2844 50.7889 40.2292C45.3106 44.174 42.5939 49.7775 42.5939 57.0619C42.5939 62.374 44.2329 66.4757 47.4884 69.3447C50.744 72.236 55.1222 74.4998 60.578 76.1584C66.0564 77.8394 73.8024 79.5653 83.816 81.3808H84.0406C94.3686 83.1963 103.26 85.5498 110.691 88.4411C118.123 91.3325 124.252 95.7928 129.035 101.867L128.99 101.845Z" stroke="white" stroke-width="0.824456" shape-rendering="crispEdges" mask="url(#path-2-outside-2_2007_2381)"/>
</g>
<path d="M231.304 62.374C222.728 57.8912 212.804 55.6723 201.578 55.6723C190.352 55.6723 180.607 58.1378 171.963 63.0688C163.297 67.9998 156.583 74.9033 151.801 83.7567C147.019 92.6325 144.616 103.122 144.616 115.248C144.616 127.374 147.086 137.505 152.026 146.515C156.965 155.548 163.993 162.474 173.108 167.337C182.224 172.201 192.934 174.622 205.237 174.622C214.353 174.622 222.638 172.874 230.069 169.4C237.501 165.903 243.541 161.106 248.188 154.965C252.813 148.824 255.889 141.875 257.416 134.143H232.584C230.9 140.665 227.487 145.708 222.323 149.272C217.159 152.836 210.783 154.606 203.194 154.606C196.952 154.606 191.429 153.239 186.557 150.505C181.685 147.77 177.891 143.938 175.174 139.029C172.435 134.098 170.93 128.315 170.616 121.636V120.269H258.561C258.718 118.744 258.831 117.198 258.898 115.607C258.965 114.015 259.01 112.536 259.01 111.169C258.853 99.9394 256.361 90.1222 251.489 81.717C246.617 73.3119 239.903 66.8567 231.327 62.374H231.304ZM171.492 102.517C172.098 97.048 173.894 92.2739 176.835 88.1946C179.799 84.0929 183.481 80.9101 187.882 78.6463C192.282 76.3601 197.155 75.2395 202.453 75.2395C211.12 75.2395 218.282 77.5929 223.985 82.2998C229.688 87.0067 232.988 93.7532 233.886 102.539H171.469L171.492 102.517ZM353.264 62.374C344.688 57.8912 334.764 55.6723 323.538 55.6723C312.312 55.6723 302.567 58.1378 293.923 63.0688C285.257 67.9998 278.544 74.9033 273.761 83.7567C268.979 92.6325 266.577 103.122 266.577 115.248C266.577 127.374 269.046 137.505 273.986 146.515C278.925 155.548 285.953 162.474 295.068 167.337C304.184 172.201 314.894 174.622 327.197 174.622C336.313 174.622 344.598 172.874 352.03 169.4C359.461 165.903 365.501 161.106 370.148 154.965C374.774 148.824 377.85 141.875 379.376 134.143H354.544C352.86 140.665 349.448 145.708 344.284 149.272C339.12 152.836 332.743 154.606 325.154 154.606C318.913 154.606 313.389 153.239 308.517 150.505C303.645 147.77 299.851 143.938 297.134 139.029C294.395 134.098 292.891 128.315 292.576 121.636V120.269H380.521C380.679 118.744 380.791 117.198 380.858 115.607C380.925 114.015 380.97 112.536 380.97 111.169C380.813 99.9394 378.321 90.1222 373.449 81.717C368.577 73.3119 361.864 66.8567 353.287 62.374H353.264ZM293.452 102.517C294.058 97.048 295.854 92.2739 298.795 88.1946C301.759 84.0929 305.441 80.9101 309.842 78.6463C314.243 76.3601 319.115 75.2395 324.413 75.2395C333.08 75.2395 340.242 77.5929 345.945 82.2998C351.648 87.0067 354.948 93.7532 355.846 102.539H293.429L293.452 102.517ZM576.596 62.374C568.019 57.8912 558.096 55.6723 546.869 55.6723C535.643 55.6723 525.899 58.1378 517.255 63.0688C508.588 67.9998 501.875 74.9033 497.093 83.7567C492.311 92.6325 489.908 103.122 489.908 115.248C489.908 127.374 492.378 137.505 497.317 146.515C502.257 155.548 509.284 162.474 518.4 167.337C527.516 172.201 538.225 174.622 550.529 174.622C559.645 174.622 567.93 172.874 575.361 169.4C582.793 165.903 588.832 161.106 593.48 154.965C598.105 148.824 601.181 141.875 602.708 134.143H577.876C576.192 140.665 572.779 145.708 567.615 149.272C562.451 152.836 556.075 154.606 548.486 154.606C542.244 154.606 536.721 153.239 531.849 150.505C526.977 147.77 523.182 143.938 520.466 139.029C517.726 134.098 516.222 128.315 515.908 121.636V120.269H603.853C604.01 118.744 604.122 117.198 604.19 115.607C604.257 114.015 604.302 112.536 604.302 111.169C604.145 99.9394 601.653 90.1222 596.781 81.717C591.908 73.3119 585.195 66.8567 576.619 62.374H576.596ZM516.806 102.517C517.412 97.048 519.208 92.2739 522.15 88.1946C525.113 84.0929 528.795 80.9101 533.196 78.6463C537.597 76.3601 542.469 75.2395 547.767 75.2395C556.434 75.2395 563.596 77.5929 569.299 82.2998C575.002 87.0067 578.302 93.7532 579.201 102.539H516.784L516.806 102.517ZM689.912 57.0395V79.5653H639.956V173.277H615.214V89.248C615.214 69.8826 629.044 57.0395 648.443 57.0395H689.912ZM450.168 114.576L504.839 173.031L472.934 173.255L429.736 125.715H415.479V173.255H390.647V9.5H415.479V102.988H430.163L472.934 55.8964L504.839 56.1205L450.168 114.576ZM128.99 101.845C133.772 107.919 136.174 115.876 136.174 125.738C136.174 134.994 133.637 143.332 128.541 150.751C123.444 158.193 116.417 163.953 107.458 168.032C98.4997 172.134 88.3289 174.174 76.9232 174.174C64.3051 174.174 53.2362 171.932 43.6491 167.472C34.0845 163.012 26.6304 156.669 21.3317 148.488C16.0105 140.307 13.204 130.982 12.9121 120.515L38.4402 120.739C39.2036 130.153 43.0654 137.729 50.0704 143.489C57.0531 149.25 66.1013 152.141 77.1926 152.141C86.9144 152.141 94.7727 150.101 100.767 146C106.762 141.898 109.771 136.07 109.771 128.494C109.771 123.182 108.087 118.946 104.764 115.763C101.419 112.581 97.0179 110.227 91.5396 108.703C86.0613 107.179 78.0907 105.453 67.628 103.481L66.483 103.257C56.604 101.598 48.0273 99.2446 40.7303 96.1963C33.4334 93.1704 27.5509 88.6205 23.0829 82.5463C18.5925 76.4946 16.3697 68.605 16.3697 58.8999C16.3697 49.7999 18.7721 41.6861 23.5544 34.5585C28.3367 27.431 35.0499 21.8948 43.7165 17.95C52.383 14.0052 62.1722 12.0328 73.1064 12.0328C84.0406 12.0328 94.6829 14.1172 103.641 18.2862C112.6 22.4551 119.672 28.2827 124.836 35.7913C130 43.2999 132.739 51.8171 133.031 61.3878H107.503C106.448 53.2068 102.788 46.6395 96.5689 41.7085C90.3496 36.7775 82.5138 34.312 73.1064 34.312C63.6989 34.312 56.2448 36.2844 50.7889 40.2292C45.3106 44.174 42.5939 49.7775 42.5939 57.0619C42.5939 62.374 44.2329 66.4757 47.4884 69.3446C50.744 72.236 55.1222 74.4998 60.578 76.1584C66.0564 77.8394 73.8024 79.5653 83.816 81.3808H84.0406C94.3686 83.1963 103.26 85.5498 110.691 88.4411C118.123 91.3325 124.252 95.7928 129.035 101.867L128.99 101.845Z" stroke="white" stroke-width="0.412228"/>
<defs>
<filter id="filter0_f_2007_2381" x="8.78983" y="5.37772" width="685.245" height="173.367" filterUnits="userSpaceOnUse" color-interpolation-filters="sRGB">
<feFlood flood-opacity="0" result="BackgroundImageFix"/>
<feBlend mode="normal" in="SourceGraphic" in2="BackgroundImageFix" result="shape"/>
<feGaussianBlur stdDeviation="2.06114" result="effect1_foregroundBlur_2007_2381"/>
</filter>
<filter id="filter1_ddi_2007_2381" x="0.368773" y="0.0405846" width="702.075" height="190.185" filterUnits="userSpaceOnUse" color-interpolation-filters="sRGB">
<feFlood flood-opacity="0" result="BackgroundImageFix"/>
<feColorMatrix in="SourceAlpha" type="matrix" values="0 0 0 0 0 0 0 0 0 0 0 0 0 0 0 0 0 0 127 0" result="hardAlpha"/>
<feOffset dy="3.07232"/>
<feGaussianBlur stdDeviation="6.05975"/>
<feComposite in2="hardAlpha" operator="out"/>
<feColorMatrix type="matrix" values="0 0 0 0 0.027451 0 0 0 0 0.439216 0 0 0 0 0.623529 0 0 0 0.2 0"/>
<feBlend mode="normal" in2="BackgroundImageFix" result="effect1_dropShadow_2007_2381"/>
<feColorMatrix in="SourceAlpha" type="matrix" values="0 0 0 0 0 0 0 0 0 0 0 0 0 0 0 0 0 0 127 0" result="hardAlpha"/>
<feOffset dy="3.95013"/>
<feGaussianBlur stdDeviation="2.9626"/>
<feComposite in2="hardAlpha" operator="out"/>
<feColorMatrix type="matrix" values="0 0 0 0 0.188235 0 0 0 0 0.584314 0 0 0 0 0.537255 0 0 0 0.1 0"/>
<feBlend mode="normal" in2="effect1_dropShadow_2007_2381" result="effect2_dropShadow_2007_2381"/>
<feBlend mode="normal" in="SourceGraphic" in2="effect2_dropShadow_2007_2381" result="shape"/>
<feColorMatrix in="SourceAlpha" type="matrix" values="0 0 0 0 0 0 0 0 0 0 0 0 0 0 0 0 0 0 127 0" result="hardAlpha"/>
<feOffset dy="1.64891"/>
<feGaussianBlur stdDeviation="2.06114"/>
<feComposite in2="hardAlpha" operator="arithmetic" k2="-1" k3="1"/>
<feColorMatrix type="matrix" values="0 0 0 0 1 0 0 0 0 1 0 0 0 0 1 0 0 0 1 0"/>
<feBlend mode="normal" in2="shape" result="effect3_innerShadow_2007_2381"/>
</filter>
<linearGradient id="paint0_linear_2007_2381" x1="351.412" y1="174.622" x2="351.412" y2="-99.1412" gradientUnits="userSpaceOnUse">
<stop stop-color="#F6F6F5"/>
<stop offset="0.2" stop-color="#62F3C6"/>
<stop offset="0.4" stop-color="#129A8B"/>
<stop offset="0.6" stop-color="#07709F"/>
<stop offset="1" stop-color="#0F0704"/>
</linearGradient>
<linearGradient id="paint1_linear_2007_2381" x1="351.412" y1="235.98" x2="351.412" y2="9.5" gradientUnits="userSpaceOnUse">
<stop offset="0.25" stop-color="#D9F2FB" stop-opacity="0.7"/>
<stop offset="0.75" stop-color="white"/>
</linearGradient>
</defs>
</svg>
