<svg width="337" height="82" viewBox="0 0 337 82" fill="none" xmlns="http://www.w3.org/2000/svg">
<path d="M109.304 26.8443C105.047 24.6181 100.122 23.5162 94.5501 23.5162C88.9785 23.5162 84.1424 24.7406 79.8523 27.1893C75.551 29.6381 72.2192 33.0663 69.8457 37.463C67.4722 41.8707 66.2799 47.0799 66.2799 53.1016C66.2799 59.1234 67.5056 64.1544 69.9571 68.629C72.4086 73.1147 75.8964 76.5541 80.4206 78.9694C84.9447 81.3848 90.26 82.5869 96.3665 82.5869C100.891 82.5869 105.002 81.7187 108.691 79.9935C112.379 78.2571 115.377 75.8751 117.683 72.8253C119.979 69.7755 121.505 66.3249 122.263 62.4848H109.939C109.103 65.7239 107.409 68.2283 104.846 69.9981C102.283 71.7679 99.1188 72.6472 95.3524 72.6472C92.2546 72.6472 89.5134 71.9682 87.0953 70.6103C84.6773 69.2523 82.7941 67.349 81.4457 64.9113C80.0863 62.4626 79.3397 59.5908 79.1837 56.2739V55.5949H122.831C122.909 54.838 122.965 54.07 122.999 53.2797C123.032 52.4895 123.054 51.7548 123.054 51.0759C122.976 45.4994 121.739 40.6241 119.321 36.4501C116.903 32.2761 113.572 29.0704 109.315 26.8443H109.304ZM79.6183 46.7794C79.9191 44.0635 80.8106 41.6927 82.2703 39.6669C83.7412 37.6299 85.5687 36.0494 87.7528 34.9252C89.9368 33.7898 92.3549 33.2333 94.9847 33.2333C99.286 33.2333 102.841 34.402 105.671 36.7395C108.501 39.0769 110.139 42.4273 110.585 46.7905H79.6071L79.6183 46.7794ZM169.833 26.8443C165.577 24.6181 160.651 23.5162 155.08 23.5162C149.508 23.5162 144.672 24.7406 140.382 27.1893C136.081 29.6381 132.749 33.0663 130.375 37.463C128.002 41.8707 126.81 47.0799 126.81 53.1016C126.81 59.1234 128.035 64.1544 130.487 68.629C132.938 73.1147 136.426 76.5541 140.95 78.9694C145.474 81.3848 150.79 82.5869 156.896 82.5869C161.42 82.5869 165.532 81.7187 169.22 79.9935C172.909 78.2571 175.906 75.8751 178.213 72.8253C180.509 69.7755 182.035 66.3249 182.793 62.4848H170.469C169.633 65.7239 167.939 68.2283 165.376 69.9981C162.813 71.7679 159.649 72.6472 155.882 72.6472C152.784 72.6472 150.043 71.9682 147.625 70.6103C145.207 69.2523 143.324 67.349 141.975 64.9113C140.616 62.4626 139.869 59.5908 139.713 56.2739V55.5949H183.361C183.439 54.838 183.495 54.07 183.528 53.2797C183.562 52.4895 183.584 51.7548 183.584 51.0759C183.506 45.4994 182.269 40.6241 179.851 36.4501C177.433 32.2761 174.101 29.0704 169.845 26.8443H169.833ZM140.148 46.7794C140.449 44.0635 141.34 41.6927 142.8 39.6669C144.271 37.6299 146.098 36.0494 148.282 34.9252C150.467 33.7898 152.885 33.2333 155.514 33.2333C159.816 33.2333 163.37 34.402 166.201 36.7395C169.031 39.0769 170.669 42.4273 171.115 46.7905H140.137L140.148 46.7794ZM280.674 26.8443C276.418 24.6181 271.493 23.5162 265.921 23.5162C260.349 23.5162 255.513 24.7406 251.223 27.1893C246.922 29.6381 243.59 33.0663 241.217 37.463C238.843 41.8707 237.651 47.0799 237.651 53.1016C237.651 59.1234 238.876 64.1544 241.328 68.629C243.779 73.1147 247.267 76.5541 251.791 78.9694C256.316 81.3848 261.631 82.5869 267.737 82.5869C272.261 82.5869 276.373 81.7187 280.062 79.9935C283.75 78.2571 286.747 75.8751 289.054 72.8253C291.35 69.7755 292.876 66.3249 293.634 62.4848H281.31C280.474 65.7239 278.78 68.2283 276.217 69.9981C273.654 71.7679 270.49 72.6472 266.723 72.6472C263.625 72.6472 260.884 71.9682 258.466 70.6103C256.048 69.2523 254.165 67.349 252.817 64.9113C251.457 62.4626 250.71 59.5908 250.554 56.2739V55.5949H294.202C294.28 54.838 294.336 54.07 294.369 53.2797C294.403 52.4895 294.425 51.7548 294.425 51.0759C294.347 45.4994 293.11 40.6241 290.692 36.4501C288.274 32.2761 284.942 29.0704 280.686 26.8443H280.674ZM251 46.7794C251.301 44.0635 252.193 41.6927 253.652 39.6669C255.123 37.6299 256.951 36.0494 259.135 34.9252C261.319 33.7898 263.737 33.2333 266.367 33.2333C270.668 33.2333 274.223 34.402 277.053 36.7395C279.883 39.0769 281.521 42.4273 281.967 46.7905H250.989L251 46.7794ZM336.914 24.1952V35.3815H312.12V81.9191H299.841V40.19C299.841 30.5731 306.705 24.1952 316.333 24.1952H336.914ZM217.927 52.7677L245.061 81.7966L229.226 81.9079L207.787 58.2997H200.711V81.9079H188.387V0.586914H200.711V47.0131H207.999L229.226 23.6275L245.061 23.7388L217.927 52.7677ZM58.5243 46.4455C60.8977 49.4619 62.0901 53.4133 62.0901 58.3108C62.0901 62.9078 60.8309 67.0484 58.3014 70.7327C55.7719 74.4281 52.2841 77.2887 47.8379 79.3145C43.3918 81.3514 38.344 82.3643 32.6832 82.3643C26.4208 82.3643 20.9272 81.2512 16.1691 79.0362C11.4221 76.8212 7.72254 73.6712 5.09275 69.6085C2.45182 65.5458 1.05892 60.9154 0.914062 55.7174L13.5838 55.8287C13.9627 60.5036 15.8793 64.2658 19.356 67.1263C22.8215 69.9869 27.3122 71.4228 32.817 71.4228C37.6419 71.4228 41.5421 70.4099 44.5173 68.373C47.4925 66.3361 48.9857 63.4421 48.9857 59.6799C48.9857 57.0419 48.15 54.9382 46.5008 53.3576C44.8404 51.7771 42.6564 50.6084 39.9374 49.8515C37.2185 49.0946 33.2627 48.2375 28.07 47.258L27.5017 47.1467C22.5987 46.323 18.342 45.1543 14.7204 43.6405C11.0989 42.1379 8.17941 39.8783 5.96192 36.8619C3.73328 33.8566 2.63011 29.9386 2.63011 25.119C2.63011 20.5999 3.82243 16.5706 6.19592 13.0311C8.56942 9.49149 11.9012 6.7422 16.2025 4.78319C20.5038 2.82419 25.3622 1.84469 30.7889 1.84469C36.2156 1.84469 41.4975 2.87984 45.9436 4.95016C50.3897 7.02047 53.8998 9.91446 56.4628 13.6432C59.0257 17.372 60.3852 21.6017 60.53 26.3545H47.8602C47.3365 22.2918 45.5202 19.0305 42.4335 16.5818C39.3469 14.133 35.4579 12.9086 30.7889 12.9086C26.1199 12.9086 22.4204 13.8881 19.7126 15.8471C16.9937 17.8061 15.6453 20.5888 15.6453 24.2063C15.6453 26.8443 16.4588 28.8812 18.0745 30.3059C19.6903 31.7418 21.8632 32.866 24.571 33.6897C27.2899 34.5245 31.1343 35.3815 36.1042 36.2831H36.2156C41.3415 37.1847 45.7542 38.3534 49.4426 39.7893C53.131 41.2252 56.173 43.4402 58.5465 46.4566L58.5243 46.4455Z" fill="#81D7CD"/>
</svg>
