        <svg width="32" height="32" viewBox="0 0 25 24" fill="none" xmlns="http://www.w3.org/2000/svg"><path d="M21.6927 12.5306L14.9427 19.2806C14.802 19.4213 14.6111 19.5003 14.4121 19.5003C14.2131 19.5003 14.0222 19.4213 13.8815 19.2806C13.7408 19.1398 13.6617 18.949 13.6617 18.7499C13.6617 18.5509 13.7408 18.36 13.8815 18.2193L19.3518 12.7499H4.66211C4.4632 12.7499 4.27243 12.6709 4.13178 12.5303C3.99113 12.3896 3.91211 12.1988 3.91211 11.9999C3.91211 11.801 3.99113 11.6103 4.13178 11.4696C4.27243 11.3289 4.4632 11.2499 4.66211 11.2499H19.3518L13.8815 5.78055C13.7408 5.63982 13.6617 5.44895 13.6617 5.24993C13.6617 5.05091 13.7408 4.86003 13.8815 4.7193C14.0222 4.57857 14.2131 4.49951 14.4121 4.49951C14.6111 4.49951 14.802 4.57857 14.9427 4.7193L21.6927 11.4693C21.7625 11.539 21.8178 11.6217 21.8555 11.7127C21.8933 11.8038 21.9127 11.9014 21.9127 11.9999C21.9127 12.0985 21.8933 12.1961 21.8555 12.2871C21.8178 12.3782 21.7625 12.4609 21.6927 12.5306Z" fill="#61AFBD"></path><path d="M21.6927 12.5306L14.9427 19.2806C14.802 19.4213 14.6111 19.5003 14.4121 19.5003C14.2131 19.5003 14.0222 19.4213 13.8815 19.2806C13.7408 19.1398 13.6617 18.949 13.6617 18.7499C13.6617 18.5509 13.7408 18.36 13.8815 18.2193L19.3518 12.7499H4.66211C4.4632 12.7499 4.27243 12.6709 4.13178 12.5303C3.99113 12.3896 3.91211 12.1988 3.91211 11.9999C3.91211 11.801 3.99113 11.6103 4.13178 11.4696C4.27243 11.3289 4.4632 11.2499 4.66211 11.2499H19.3518L13.8815 5.78055C13.7408 5.63982 13.6617 5.44895 13.6617 5.24993C13.6617 5.05091 13.7408 4.86003 13.8815 4.7193C14.0222 4.57857 14.2131 4.49951 14.4121 4.49951C14.6111 4.49951 14.802 4.57857 14.9427 4.7193L21.6927 11.4693C21.7625 11.539 21.8178 11.6217 21.8555 11.7127C21.8933 11.8038 21.9127 11.9014 21.9127 11.9999C21.9127 12.0985 21.8933 12.1961 21.8555 12.2871C21.8178 12.3782 21.7625 12.4609 21.6927 12.5306Z" fill="black" fill-opacity="0.2"></path><path d="M21.6927 12.5306L14.9427 19.2806C14.802 19.4213 14.6111 19.5003 14.4121 19.5003C14.2131 19.5003 14.0222 19.4213 13.8815 19.2806C13.7408 19.1398 13.6617 18.949 13.6617 18.7499C13.6617 18.5509 13.7408 18.36 13.8815 18.2193L19.3518 12.7499H4.66211C4.4632 12.7499 4.27243 12.6709 4.13178 12.5303C3.99113 12.3896 3.91211 12.1988 3.91211 11.9999C3.91211 11.801 3.99113 11.6103 4.13178 11.4696C4.27243 11.3289 4.4632 11.2499 4.66211 11.2499H19.3518L13.8815 5.78055C13.7408 5.63982 13.6617 5.44895 13.6617 5.24993C13.6617 5.05091 13.7408 4.86003 13.8815 4.7193C14.0222 4.57857 14.2131 4.49951 14.4121 4.49951C14.6111 4.49951 14.802 4.57857 14.9427 4.7193L21.6927 11.4693C21.7625 11.539 21.8178 11.6217 21.8555 11.7127C21.8933 11.8038 21.9127 11.9014 21.9127 11.9999C21.9127 12.0985 21.8933 12.1961 21.8555 12.2871C21.8178 12.3782 21.7625 12.4609 21.6927 12.5306Z" fill="black" fill-opacity="0.2"></path><path d="M21.6927 12.5306L14.9427 19.2806C14.802 19.4213 14.6111 19.5003 14.4121 19.5003C14.2131 19.5003 14.0222 19.4213 13.8815 19.2806C13.7408 19.1398 13.6617 18.949 13.6617 18.7499C13.6617 18.5509 13.7408 18.36 13.8815 18.2193L19.3518 12.7499H4.66211C4.4632 12.7499 4.27243 12.6709 4.13178 12.5303C3.99113 12.3896 3.91211 12.1988 3.91211 11.9999C3.91211 11.801 3.99113 11.6103 4.13178 11.4696C4.27243 11.3289 4.4632 11.2499 4.66211 11.2499H19.3518L13.8815 5.78055C13.7408 5.63982 13.6617 5.44895 13.6617 5.24993C13.6617 5.05091 13.7408 4.86003 13.8815 4.7193C14.0222 4.57857 14.2131 4.49951 14.4121 4.49951C14.6111 4.49951 14.802 4.57857 14.9427 4.7193L21.6927 11.4693C21.7625 11.539 21.8178 11.6217 21.8555 11.7127C21.8933 11.8038 21.9127 11.9014 21.9127 11.9999C21.9127 12.0985 21.8933 12.1961 21.8555 12.2871C21.8178 12.3782 21.7625 12.4609 21.6927 12.5306Z" fill="black" fill-opacity="0.2"></path></svg>